<?xml version="1.0" encoding="us-ascii" standalone="no"?><svg xmlns="http://www.w3.org/2000/svg" xmlns:xlink="http://www.w3.org/1999/xlink" contentStyleType="text/css" height="150px" preserveAspectRatio="none" style="width:536px;height:150px;background:#FFFFFF;" version="1.1" viewBox="0 0 536 150" width="536px" zoomAndPan="magnify"><defs/><g><!--class Trajet--><g id="elem_Trajet"><rect codeLine="2" fill="#F1F1F1" height="136.0469" id="Trajet" rx="2.5" ry="2.5" style="stroke:#181818;stroke-width:0.5;" width="255" x="7" y="7"/><ellipse cx="111.75" cy="23" fill="#ADD1B2" rx="11" ry="11" style="stroke:#181818;stroke-width:1.0;"/><path d="M114.5156,18.875 Q114.6719,18.6563 114.8594,18.5469 Q115.0469,18.4375 115.2656,18.4375 Q115.6406,18.4375 115.875,18.7031 Q116.1094,18.9531 116.1094,19.5625 L116.1094,21.0156 Q116.1094,21.625 115.875,21.8906 Q115.6406,22.1563 115.2656,22.1563 Q114.9219,22.1563 114.7188,21.9531 Q114.5156,21.7656 114.4063,21.25 Q114.3594,20.8906 114.1719,20.7031 Q113.8438,20.3281 113.2344,20.1094 Q112.625,19.8906 112,19.8906 Q111.2344,19.8906 110.5938,20.2188 Q109.9688,20.5469 109.4688,21.2969 Q108.9844,22.0469 108.9844,23.0781 L108.9844,24.1719 Q108.9844,25.4063 109.875,26.2344 Q110.7656,27.0469 112.3594,27.0469 Q113.2969,27.0469 113.9531,26.7969 Q114.3438,26.6406 114.7656,26.2031 Q115.0313,25.9375 115.1719,25.8594 Q115.3281,25.7813 115.5313,25.7813 Q115.8594,25.7813 116.1094,26.0469 Q116.375,26.2969 116.375,26.6406 Q116.375,26.9844 116.0313,27.3906 Q115.5313,27.9688 114.7344,28.2969 Q113.6563,28.75 112.3594,28.75 Q110.8438,28.75 109.6406,28.125 Q108.6563,27.625 107.9688,26.5625 Q107.2813,25.4844 107.2813,24.2031 L107.2813,23.0469 Q107.2813,21.7188 107.8906,20.5781 Q108.5156,19.4219 109.6094,18.8125 Q110.7031,18.1875 111.9375,18.1875 Q112.6719,18.1875 113.3125,18.3594 Q113.9688,18.5156 114.5156,18.875 Z " fill="#000000"/><text fill="#000000" font-family="sans-serif" font-size="14" lengthAdjust="spacing" textLength="37" x="132.25" y="28.7285">Trajet</text><line style="stroke:#181818;stroke-width:0.5;" x1="8" x2="261" y1="39" y2="39"/><ellipse cx="18" cy="53.3047" fill="none" rx="3" ry="3" style="stroke:#038048;stroke-width:1.0;"/><text fill="#000000" font-family="sans-serif" font-size="14" lengthAdjust="spacing" textLength="34" x="27" y="57.5332">Id: int</text><ellipse cx="18" cy="70.9141" fill="none" rx="3" ry="3" style="stroke:#038048;stroke-width:1.0;"/><text fill="#000000" font-family="sans-serif" font-size="14" lengthAdjust="spacing" textLength="71" x="27" y="75.1426">Nom: string</text><ellipse cx="18" cy="88.5234" fill="none" rx="3" ry="3" style="stroke:#038048;stroke-width:1.0;"/><text fill="#000000" font-family="sans-serif" font-size="14" lengthAdjust="spacing" textLength="147" x="27" y="92.752">PointsArret: List&lt;Arret&gt;</text><ellipse cx="18" cy="106.1328" fill="none" rx="3" ry="3" style="stroke:#038048;stroke-width:1.0;"/><text fill="#000000" font-family="sans-serif" font-size="14" lengthAdjust="spacing" textLength="190" x="27" y="110.3613">DateCreationTrajet: DateTime</text><ellipse cx="18" cy="123.7422" fill="none" rx="3" ry="3" style="stroke:#038048;stroke-width:1.0;"/><text fill="#000000" font-family="sans-serif" font-size="14" lengthAdjust="spacing" textLength="229" x="27" y="127.9707">DateDerniereModification: DateTime</text><line style="stroke:#181818;stroke-width:0.5;" x1="8" x2="261" y1="135.0469" y2="135.0469"/></g><!--class Arret--><g id="elem_Arret"><rect codeLine="10" fill="#F1F1F1" height="100.8281" id="Arret" rx="2.5" ry="2.5" style="stroke:#181818;stroke-width:0.5;" width="140" x="389" y="24.5"/><ellipse cx="439.25" cy="40.5" fill="#ADD1B2" rx="11" ry="11" style="stroke:#181818;stroke-width:1.0;"/><path d="M442.0156,36.375 Q442.1719,36.1563 442.3594,36.0469 Q442.5469,35.9375 442.7656,35.9375 Q443.1406,35.9375 443.375,36.2031 Q443.6094,36.4531 443.6094,37.0625 L443.6094,38.5156 Q443.6094,39.125 443.375,39.3906 Q443.1406,39.6563 442.7656,39.6563 Q442.4219,39.6563 442.2188,39.4531 Q442.0156,39.2656 441.9063,38.75 Q441.8594,38.3906 441.6719,38.2031 Q441.3438,37.8281 440.7344,37.6094 Q440.125,37.3906 439.5,37.3906 Q438.7344,37.3906 438.0938,37.7188 Q437.4688,38.0469 436.9688,38.7969 Q436.4844,39.5469 436.4844,40.5781 L436.4844,41.6719 Q436.4844,42.9063 437.375,43.7344 Q438.2656,44.5469 439.8594,44.5469 Q440.7969,44.5469 441.4531,44.2969 Q441.8438,44.1406 442.2656,43.7031 Q442.5313,43.4375 442.6719,43.3594 Q442.8281,43.2813 443.0313,43.2813 Q443.3594,43.2813 443.6094,43.5469 Q443.875,43.7969 443.875,44.1406 Q443.875,44.4844 443.5313,44.8906 Q443.0313,45.4688 442.2344,45.7969 Q441.1563,46.25 439.8594,46.25 Q438.3438,46.25 437.1406,45.625 Q436.1563,45.125 435.4688,44.0625 Q434.7813,42.9844 434.7813,41.7031 L434.7813,40.5469 Q434.7813,39.2188 435.3906,38.0781 Q436.0156,36.9219 437.1094,36.3125 Q438.2031,35.6875 439.4375,35.6875 Q440.1719,35.6875 440.8125,35.8594 Q441.4688,36.0156 442.0156,36.375 Z " fill="#000000"/><text fill="#000000" font-family="sans-serif" font-size="14" lengthAdjust="spacing" textLength="31" x="459.75" y="46.2285">Arret</text><line style="stroke:#181818;stroke-width:0.5;" x1="390" x2="528" y1="56.5" y2="56.5"/><ellipse cx="400" cy="70.8047" fill="none" rx="3" ry="3" style="stroke:#038048;stroke-width:1.0;"/><text fill="#000000" font-family="sans-serif" font-size="14" lengthAdjust="spacing" textLength="34" x="409" y="75.0332">Id: int</text><ellipse cx="400" cy="88.4141" fill="none" rx="3" ry="3" style="stroke:#038048;stroke-width:1.0;"/><text fill="#000000" font-family="sans-serif" font-size="14" lengthAdjust="spacing" textLength="102" x="409" y="92.6426">Latitude: double</text><ellipse cx="400" cy="106.0234" fill="none" rx="3" ry="3" style="stroke:#038048;stroke-width:1.0;"/><text fill="#000000" font-family="sans-serif" font-size="14" lengthAdjust="spacing" textLength="114" x="409" y="110.252">Longitude: double</text><line style="stroke:#181818;stroke-width:0.5;" x1="390" x2="528" y1="117.3281" y2="117.3281"/></g><!--reverse link Trajet to Arret--><g id="link_Trajet_Arret"><path codeLine="16" d="M274.03,75 C317.27,75 352,75 388.98,75 " fill="none" id="Trajet-backto-Arret" style="stroke:#181818;stroke-width:1.0;"/><polygon fill="#181818" points="262.03,75,268.03,79,274.03,75,268.03,71,262.03,75" style="stroke:#181818;stroke-width:1.0;"/><text fill="#000000" font-family="sans-serif" font-size="13" lengthAdjust="spacing" textLength="65" x="293" y="71.4951">PointsArret</text><text fill="#000000" font-family="sans-serif" font-size="13" lengthAdjust="spacing" textLength="7" x="270.0146" y="88.9919">1</text><text fill="#000000" font-family="sans-serif" font-size="13" lengthAdjust="spacing" textLength="32" x="349.05" y="89.2567">many</text></g><!--SRC=[PO_12i8m44Jl-OebHwK7hq44iHUXYeV-G6osTQLDOBCzYFZlDh52nTlipF2OxR4La01CtKt04MCZ5BngUXiZr6plAF1K0EkZCq1UaZo7mK0K9j-byn8cF-wPKGnK56MRzIvbfHKyCDe4_T0C9A-c0RzvYUm96K_1KKjDxYvQBpMloTI_CTNKbz6X0HV6Qv-fLV3Thpb1vcVqHiEgA40FrZ_q33MmU4Az0G00]--></g></svg>